<?xml version="1.0" encoding="utf-8"?>
<!-- Generator: Adobe Illustrator 22.0.0, SVG Export Plug-In . SVG Version: 6.00 Build 0)  -->
<svg version="1.1" id="Layer_1" xmlns="http://www.w3.org/2000/svg" xmlns:xlink="http://www.w3.org/1999/xlink" x="0px" y="0px"
	 viewBox="0 0 512 512" style="enable-background:new 0 0 512 512;" xml:space="preserve">
<style type="text/css">
	.st0{fill:#E04F5F;}
	.st1{fill:#FFFFFF;}
</style>
<g>
	<path class="st0" d="M502.9,256.5C502.9,119.8,392.1,9,255.5,9C118.8,9,8,119.8,8,256.5c0,136.7,110.8,247.5,247.5,247.5
		C392.1,503.9,502.9,393.1,502.9,256.5L502.9,256.5z M502.9,256.5"/>
	<path class="st1" d="M284.4,256.5l72.3-84c7.9-9.2,6.9-23-2.3-30.9c-9.2-7.9-23-6.9-30.9,2.3l-68.1,79l-68.1-79
		c-7.9-9.2-21.7-10.2-30.9-2.3c-9.2,7.9-10.2,21.7-2.3,30.9l72.3,84l-72.3,84c-7.9,9.2-6.9,23,2.3,30.9c4.1,3.6,9.2,5.3,14.3,5.3
		c6.1,0,12.3-2.6,16.6-7.6l68.1-79l68.1,79c4.3,5,10.4,7.6,16.6,7.6c5.1,0,10.1-1.7,14.3-5.3c9.2-7.9,10.2-21.7,2.3-30.9
		L284.4,256.5z M284.4,256.5"/>
</g>
</svg>
