<svg xmlns="http://www.w3.org/2000/svg" xmlns:xlink="http://www.w3.org/1999/xlink" viewBox="684 41 512 512">
  <defs>
    <style>
      .cls-1 {
        clip-path: url(#clip-line-graph);
      }

      .cls-2 {
        fill: #fff;
      }
    </style>
    <clipPath id="clip-line-graph">
      <rect x="684" y="41" width="512" height="512"/>
    </clipPath>
  </defs>
  <g id="line-graph" class="cls-1">
    <rect class="cls-2" x="684" y="41" width="512" height="512"/>
    <path id="line-graph-2" data-name="line-graph" d="M-7.025,553.771H83.414L57.07,606.459a20.638,20.638,0,1,0,36.918,18.459l35.574-71.147h139.6l35.573,71.147a20.638,20.638,0,1,0,36.918-18.459l-26.344-52.688h90.439a20.64,20.64,0,0,0,20.639-20.639V202.916a20.639,20.639,0,0,0-20.639-20.639H220V161.639a20.639,20.639,0,1,0-41.277,0v20.639H-7.025a20.639,20.639,0,0,0-20.639,20.639V533.133A20.639,20.639,0,0,0-7.025,553.771ZM58.289,421.535l97.292-97.292a20.639,20.639,0,0,1,29.187,0l43.78,43.783,82.7-82.7a20.639,20.639,0,0,1,29.187,29.189l-97.291,97.29a20.635,20.635,0,0,1-29.187,0l-43.78-43.782-82.7,82.7a20.638,20.638,0,0,1-29.188-29.185Z" transform="translate(740.303 -91.667)"/>
  </g>
</svg>
