<svg xmlns="http://www.w3.org/2000/svg" xmlns:xlink="http://www.w3.org/1999/xlink" viewBox="132 41 512 512">
  <defs>
    <style>
      .cls-1 {
        clip-path: url(#clip-smart-menu-edit);
      }

      .cls-2 {
        fill: #fff;
      }
    </style>
    <clipPath id="clip-smart-menu-edit">
      <rect x="132" y="41" width="512" height="512"/>
    </clipPath>
  </defs>
  <g id="smart-menu-edit" class="cls-1">
    <rect class="cls-2" x="132" y="41" width="512" height="512"/>
    <path id="smart-menu-edit-2" data-name="smart-menu-edit" d="M463.1,93.6H261.4L235.5,18a10.241,10.241,0,0,0-9.8-7H50.3A41.376,41.376,0,0,0,9,52.3V382.5a41.312,41.312,0,0,0,41.3,41.3H249.5l28.4,75.9a10.4,10.4,0,0,0,9.7,6.7H463a41.312,41.312,0,0,0,41.3-41.3V134.8A41.205,41.205,0,0,0,463.1,93.6ZM225.7,341.2H81.3a10.3,10.3,0,1,1,0-20.6H225.8a10.3,10.3,0,1,1-.1,20.6Zm0-61.9H81.3a10.3,10.3,0,1,1,0-20.6H225.8a10.3,10.3,0,1,1-.1,20.6Zm0-82.6H81.3a10.3,10.3,0,0,1,0-20.6h1a71.993,71.993,0,0,1,51.2-58.7,16.471,16.471,0,0,1-.6-3.2,20.6,20.6,0,0,1,41.2,0c0,1.1-.5,2.1-.6,3.2a72.124,72.124,0,0,1,51.2,58.7h1a10.3,10.3,0,1,1,0,20.6Zm258,268.4a20.635,20.635,0,0,1-20.6,20.6H310.4l57.3-65.4s.4-.5.6-.8a10.621,10.621,0,0,0,1.4-9.3l-2.4-7h64.9a10.3,10.3,0,0,0,0-20.6H360.3l-14.1-41.3h86.1a10.3,10.3,0,0,0,0-20.6H339l-14.1-41.3H432.1a10.3,10.3,0,1,0,0-20.6H317.8l-14.1-41.3H432.1a10.3,10.3,0,0,0,0-20.6H296.7l-28.2-82.6H463.2a20.635,20.635,0,0,1,20.6,20.6V465.1Z" transform="translate(131 38)"/>
  </g>
</svg>
