<?xml version="1.0" encoding="utf-8"?>
<!-- Generator: Adobe Illustrator 22.0.0, SVG Export Plug-In . SVG Version: 6.00 Build 0)  -->
<svg version="1.1" id="Layer_1" xmlns="http://www.w3.org/2000/svg" xmlns:xlink="http://www.w3.org/1999/xlink" x="0px" y="0px"
	 viewBox="0 0 512 512" style="enable-background:new 0 0 512 512;" xml:space="preserve">
<style type="text/css">
	.st0{clip-path:url(#SVGID_2_);fill:#ffffff;}
</style>
<g>
	<g>
		<defs>
			<rect id="SVGID_1_" x="10" y="5.1" width="491.9" height="502.7"/>
		</defs>
		<clipPath id="SVGID_2_">
			<use xlink:href="#SVGID_1_"  style="overflow:visible;"/>
		</clipPath>
		<path class="st0" d="M449,84.8V13.2H10v421.2h62.7V497h430.1V84.8H449z M27.9,416.4V31.1h403.2v53.7H72.7v331.6H27.9z
			 M484.9,479.1H90.6V102.8h394.2V479.1z M484.9,479.1"/>
	</g>
	<path class="st0" d="M386.4,282h-89.6v-89.6c0-4.9-4-9-9-9c-5,0-9,4-9,9V282h-89.6c-4.9,0-9,4-9,9c0,4.9,4,9,9,9h89.6v89.6c0,4.9,4,8.9,9,8.9
		c4.9,0,9-4,9-8.9v-89.6h89.6c4.9,0,8.9-4,8.9-9C395.3,286,391.3,282,386.4,282L386.4,282z M386.4,282"/>
</g>
</svg>
