<?xml version="1.0" encoding="utf-8"?>
<!-- Generator: Adobe Illustrator 22.0.0, SVG Export Plug-In . SVG Version: 6.00 Build 0)  -->
<svg version="1.1" id="Layer_1" xmlns="http://www.w3.org/2000/svg" xmlns:xlink="http://www.w3.org/1999/xlink" x="0px" y="0px"
	 viewBox="0 0 512 512" style="enable-background:new 0 0 512 512;" xml:space="preserve">
<style type="text/css">
	.st0{clip-path:url(#SVGID_2_);fill:#191919;}
	.st1{clip-path:url(#SVGID_4_);fill:#191919;}
</style>
<g>
	<g>
		<g>
			<defs>
				<rect id="SVGID_1_" x="59" y="1" width="395.9" height="510.9"/>
			</defs>
			<clipPath id="SVGID_2_">
				<use xlink:href="#SVGID_1_"  style="overflow:visible;"/>
			</clipPath>
			<path class="st0" d="M196.3,449.8c0,0.1,0,0.3,0,0.4c0,33.3,27,60.3,60.3,60.3c33.3,0,60.3-27,60.3-60.3c0-0.1,0-0.3,0-0.4H196.3
				z"/>
		</g>
		<g>
			<defs>
				<rect id="SVGID_3_" x="59" y="1" width="395.9" height="510.9"/>
			</defs>
			<clipPath id="SVGID_4_">
				<use xlink:href="#SVGID_3_"  style="overflow:visible;"/>
			</clipPath>
			<path class="st1" d="M449.3,374.4L395,294.6v-99.5C395,128,347.2,72,283.8,59.4V28.8c0-15-12.2-27.1-27.1-27.1
				c-15,0-27.1,12.1-27.1,27.1v30.6C166.1,72,118.3,128,118.3,195.1v99.5L64,374.4c-5.7,8.4-6.3,19.3-1.6,28.3
				c4.8,9,14.1,14.6,24.3,14.6h340c10.2,0,19.5-5.6,24.2-14.6C455.6,393.7,455,382.8,449.3,374.4L449.3,374.4z"/>
		</g>
	</g>
</g>
</svg>
