<?xml version="1.0" encoding="utf-8"?>
<!-- Generator: Adobe Illustrator 22.0.0, SVG Export Plug-In . SVG Version: 6.00 Build 0)  -->
<svg version="1.1" id="Layer_1" xmlns="http://www.w3.org/2000/svg" xmlns:xlink="http://www.w3.org/1999/xlink" x="0px" y="0px"
	 viewBox="0 0 512 512" style="enable-background:new 0 0 512 512;" xml:space="preserve">
<style type="text/css">
	.st0{clip-path:url(#SVGID_2_);fill:#fff}
	.st1{clip-path:url(#SVGID_4_);}
</style>
<g>
	<path class="st0" d="M187.7,282.2c0-6.3-5.1-11.4-11.4-11.4h-39.8c-6.3,0-11.4,5.1-11.4,11.4V322c0,6.3,5.1,11.4,11.4,11.4h39.8
		c6.3,0,11.4-5.1,11.4-11.4V282.2z"/>
	<path class="st0" d="M287.3,282.2c0-6.3-5.1-11.4-11.4-11.4H236c-6.3,0-11.4,5.1-11.4,11.4V322c0,6.3,5.1,11.4,11.4,11.4h39.8
		c6.3,0,11.4-5.1,11.4-11.4V282.2z"/>
	<path class="st0" d="M386.8,282.2c0-6.3-5.1-11.4-11.4-11.4h-39.8c-6.3,0-11.4,5.1-11.4,11.4V322c0,6.3,5.1,11.4,11.4,11.4h39.8
		c6.3,0,11.4-5.1,11.4-11.4V282.2z"/>
	<path class="st0" d="M187.7,381.8c0-6.3-5.1-11.4-11.4-11.4h-39.8c-6.3,0-11.4,5.1-11.4,11.4v39.8c0,6.3,5.1,11.4,11.4,11.4h39.8
		c6.3,0,11.4-5.1,11.4-11.4V381.8z"/>
	<path class="st0" d="M287.3,381.8c0-6.3-5.1-11.4-11.4-11.4H236c-6.3,0-11.4,5.1-11.4,11.4v39.8c0,6.3,5.1,11.4,11.4,11.4h39.8
		c6.3,0,11.4-5.1,11.4-11.4V381.8z"/>
	<g>
		<g>
			<defs>
				<rect id="SVGID_1_" x="10" y="4.7" width="491.8" height="503.6"/>
			</defs>
			<clipPath id="SVGID_2_">
				<use xlink:href="#SVGID_1_"  style="overflow:visible;"/>
			</clipPath>
			<path class="st0" d="M386.8,381.8c0-6.3-5.1-11.4-11.4-11.4h-39.9c-6.3,0-11.4,5.1-11.4,11.4v39.8c0,6.3,5.1,11.4,11.4,11.4h39.9
				c6.3,0,11.4-5.1,11.4-11.4V381.8z"/>
		</g>
		<g>
			<defs>
				<rect id="SVGID_3_" x="10" y="4.7" width="491.8" height="503.6"/>
			</defs>
			<clipPath id="SVGID_4_">
				<use xlink:href="#SVGID_3_"  style="overflow:visible;"/>
			</clipPath>
			<path class="st0" d="M458.1,60.7v60.8c0,27.5-22.3,49.7-49.8,49.7h-31.4c-27.5,0-50.1-22.2-50.1-49.7V60.5H185.1v61.1
				c0,27.5-22.6,49.7-50.1,49.7h-31.4c-27.5,0-49.8-22.2-49.8-49.7V60.7C29.7,61.4,10,81.3,10,105.7v356.6
				c0,24.9,20.2,45.4,45.1,45.4h401.7c24.9,0,45.1-20.5,45.1-45.4V105.7C501.9,81.3,482.1,61.4,458.1,60.7L458.1,60.7z M443.5,440.1
				c0,10.8-8.7,19.5-19.5,19.5H87c-10.8,0-19.5-8.7-19.5-19.5V255.9c0-10.8,8.7-19.5,19.5-19.5h337c10.8,0,19.5,8.7,19.5,19.5
				L443.5,440.1L443.5,440.1z"/>
		</g>
	</g>
	<path class="st0" d="M103.5,138.6h31.1c9.4,0,17.1-7.6,17.1-17.1V21.8c0-9.4-7.6-17.1-17.1-17.1h-31.1c-9.4,0-17.1,7.6-17.1,17.1v99.8
		C86.4,130.9,94,138.6,103.5,138.6L103.5,138.6z"/>
	<path class="st0" d="M376.5,138.6h31.1c9.4,0,17.1-7.6,17.1-17.1V21.8c0-9.4-7.6-17.1-17.1-17.1h-31.1c-9.4,0-17.1,7.6-17.1,17.1v99.8
		C359.4,130.9,367,138.6,376.5,138.6L376.5,138.6z"/>
</g>
</svg>
