<?xml version="1.0" encoding="utf-8"?>
<!-- Generator: Adobe Illustrator 22.0.0, SVG Export Plug-In . SVG Version: 6.00 Build 0)  -->
<svg version="1.1" id="Layer_1" xmlns="http://www.w3.org/2000/svg" xmlns:xlink="http://www.w3.org/1999/xlink" x="0px" y="0px"
	 viewBox="0 0 512 512" style="enable-background:new 0 0 512 512;" xml:space="preserve">
	<style type="text/css">
		.st0{clip-path:url(#SVGID_2_);fill:#191919;}
	</style>
<g>
	<path class="st0" d="M49.9,193.1c6.4,4.5,25.9,18,58.3,40.5c32.4,22.5,57.2,39.7,74.5,51.9c1.9,1.3,5.9,4.2,12.1,8.7
		c6.2,4.5,11.3,8.1,15.3,10.8c4.1,2.7,9,5.8,14.8,9.2c5.8,3.4,11.2,6,16.3,7.7c5.1,1.7,9.9,2.6,14.2,2.6h0.6c4.4,0,9.1-0.8,14.2-2.6
		c5.1-1.7,10.6-4.3,16.3-7.7c5.8-3.4,10.7-6.5,14.8-9.2c4.1-2.7,9.2-6.3,15.3-10.8c6.2-4.5,10.2-7.3,12.1-8.7
		c17.4-12.1,61.8-42.9,133-92.4c13.8-9.7,25.4-21.3,34.7-35c9.3-13.6,13.9-27.9,13.9-42.9c0-12.5-4.5-23.2-13.5-32.1
		c-9-8.9-19.7-13.4-32-13.4H46.5c-14.6,0-25.8,4.9-33.7,14.8C4.9,94.3,1,106.7,1,121.4c0,11.9,5.2,24.9,15.6,38.8
		C27,174.2,38.1,185.1,49.9,193.1L49.9,193.1z"/>
	<path class="st0" d="M481.9,223.5c-62.1,42.1-109.3,74.7-141.5,98.1c-10.8,8-19.6,14.2-26.3,18.6c-6.7,4.5-15.7,9-26.9,13.6
		c-11.2,4.6-21.6,7-31.3,7h-0.6c-9.7,0-20.1-2.3-31.3-7c-11.2-4.6-20.1-9.2-26.9-13.6c-6.7-4.4-15.5-10.7-26.3-18.6
		c-25.6-18.8-72.7-51.5-141.3-98.1C18.9,216.3,9.3,208,1,198.7v225.7c0,12.5,4.5,23.2,13.4,32.1c8.9,8.9,19.6,13.4,32.1,13.4h418.4
		c12.5,0,23.2-4.5,32.1-13.4c8.9-8.9,13.4-19.6,13.4-32.1V198.7C502.2,207.8,492.7,216.1,481.9,223.5L481.9,223.5z"/>
</g>
</svg>
