<?xml version="1.0" encoding="utf-8"?>
<!-- Generator: Adobe Illustrator 22.0.0, SVG Export Plug-In . SVG Version: 6.00 Build 0)  -->
<svg version="1.1" id="Layer_1" xmlns="http://www.w3.org/2000/svg" xmlns:xlink="http://www.w3.org/1999/xlink" x="0px" y="0px"
	 viewBox="0 0 512 512" style="enable-background:new 0 0 512 512;" xml:space="preserve">
<style type="text/css">
	.st0{clip-path:url(#SVGID_2_);fill:#050505;}
</style>
<g>
	<g>
		<defs>
			<rect id="SVGID_1_" x="11.2" y="12" width="488.5" height="489"/>
		</defs>
		<clipPath id="SVGID_2_">
			<use xlink:href="#SVGID_1_"  style="overflow:visible;"/>
		</clipPath>
		<path class="st0" d="M426.4,83.2c-94.9-95-248.9-95-343.9,0c-95,94.9-95,248.9,0,343.9c94.9,94.9,248.9,95,343.9,0
			C521.4,332.2,521.3,178.2,426.4,83.2L426.4,83.2z M286.2,360.9c0,17.6-14.2,31.7-31.8,31.7c-17.5,0-31.7-14.2-31.7-31.7V234
			c0-17.6,14.2-31.7,31.7-31.7c17.6,0,31.8,14.2,31.8,31.7V360.9z M253.8,179.8c-18.3,0-30.4-13-30-29
			c-0.4-16.7,11.8-29.3,30.5-29.3c18.6,0,30.4,12.5,30.8,29.3C285.1,166.9,272.9,179.8,253.8,179.8L253.8,179.8z M253.8,179.8"/>
	</g>
</g>
</svg>
