<?xml version="1.0" encoding="utf-8"?>
<!-- Generator: Adobe Illustrator 22.0.0, SVG Export Plug-In . SVG Version: 6.00 Build 0)  -->
<svg version="1.1" id="Layer_1" xmlns="http://www.w3.org/2000/svg" xmlns:xlink="http://www.w3.org/1999/xlink" x="0px" y="0px"
	 viewBox="0 0 512 512" style="enable-background:new 0 0 512 512;" xml:space="preserve">
	 <style type="text/css">
	.st0{clip-path:url(#SVGID_2_);fill:#ffffff;}
</style>
<path class="st0" d="M431.6,38.4h-80l5.4,25c0.7,3.1,0.6,6.2,0.3,9.3h57.2v403.7H97.8V72.6H155c-0.3-3.1-0.4-6.2,0.3-9.3l5.4-24.9h-80
	c-9.5,0-17.1,7.7-17.1,17.1v437.9c0,9.4,7.7,17.1,17.1,17.1h351c9.5,0,17.1-7.7,17.1-17.1V55.5C448.7,46,441.1,38.4,431.6,38.4
	L431.6,38.4z"/>
<path class="st0" d="M374.2,162.1h-117c-9.5,0-17.1,7.7-17.1,17.1c0,9.5,7.7,17.1,17.1,17.1h117c9.5,0,17.1-7.7,17.1-17.1
	C391.3,169.8,383.7,162.1,374.2,162.1L374.2,162.1z"/>
<path class="st0" d="M374.2,267.2h-117c-9.5,0-17.1,7.7-17.1,17.1c0,9.4,7.7,17.1,17.1,17.1h117c9.5,0,17.1-7.7,17.1-17.1
	C391.3,274.8,383.7,267.2,374.2,267.2L374.2,267.2z"/>
<path class="st0" d="M168.1,258.6c-14.2,0-25.7,11.5-25.7,25.7c0,14.2,11.5,25.7,25.7,25.7c14.2,0,25.7-11.5,25.7-25.7
	C193.7,270.1,182.2,258.6,168.1,258.6L168.1,258.6z"/>
<path class="st0" d="M168.1,155.9c-14.2,0-25.7,11.5-25.7,25.7c0,14.2,11.5,25.7,25.7,25.7c14.2,0,25.7-11.5,25.7-25.7
	C193.7,167.4,182.2,155.9,168.1,155.9L168.1,155.9z"/>
<path class="st0" d="M374.2,369.9h-117c-9.5,0-17.1,7.7-17.1,17.1c0,9.4,7.7,17.1,17.1,17.1h117c9.5,0,17.1-7.7,17.1-17.1
	C391.3,377.6,383.7,369.9,374.2,369.9L374.2,369.9z"/>
<path class="st0" d="M168.1,361.4c-14.2,0-25.7,11.5-25.7,25.7c0,14.2,11.5,25.7,25.7,25.7c14.2,0,25.7-11.5,25.7-25.7
	C193.7,372.8,182.2,361.4,168.1,361.4L168.1,361.4z"/>
<path class="st0" d="M183.5,81.2h145.3c3.6,0,6.9-1.6,9.2-4.4c2.2-2.7,3.1-6.4,2.3-9.9l-12-55.7c-1.2-5.4-6-9.3-11.5-9.3H195.5
	c-5.5,0-10.3,3.9-11.5,9.3l-12,55.7c-0.7,3.5,0.1,7.1,2.4,9.9C176.6,79.6,180,81.2,183.5,81.2L183.5,81.2z"/>
</svg>
