<?xml version="1.0" encoding="utf-8"?>
<!-- Generator: Adobe Illustrator 22.0.0, SVG Export Plug-In . SVG Version: 6.00 Build 0)  -->
<svg version="1.1" id="Layer_1" xmlns="http://www.w3.org/2000/svg" xmlns:xlink="http://www.w3.org/1999/xlink" x="0px" y="0px"
	 viewBox="0 0 512 512" style="enable-background:new 0 0 512 512;" xml:space="preserve">
<style type="text/css">
	.st0{stroke:#191919;stroke-width:10;stroke-miterlimit:10;}
</style>
<g>
	<path class="st0" d="M209.1,6H21.6C13,6,6,13,6,21.6v187.5c0,8.6,7,15.6,15.6,15.6h187.5c8.6,0,15.6-7,15.6-15.6V21.6
		C224.8,13,217.8,6,209.1,6z M193.5,193.5H37.3V37.3h156.3V193.5z"/>
	<path class="st0" d="M490.4,6H302.9c-8.6,0-15.6,7-15.6,15.6v187.5c0,8.6,7,15.6,15.6,15.6h187.5c8.6,0,15.6-7,15.6-15.6V21.6
		C506,13,499,6,490.4,6z M474.8,193.5H318.5V37.3h156.3V193.5z"/>
	<path class="st0" d="M209.1,287.3H21.6c-8.6,0-15.6,7-15.6,15.6v187.5C6,499,13,506,21.6,506h187.5c8.6,0,15.6-7,15.6-15.6V302.9
		C224.8,294.2,217.8,287.3,209.1,287.3z M193.5,474.8H37.3V318.5h156.3V474.8z"/>
	<path class="st0" d="M490.4,287.3H302.9c-8.6,0-15.6,7-15.6,15.6v187.5c0,8.6,7,15.6,15.6,15.6h187.5c8.6,0,15.6-7,15.6-15.6V302.9
		C506,294.2,499,287.3,490.4,287.3z M474.8,474.8H318.5V318.5h156.3V474.8z"/>
</g>
</svg>
