<?xml version="1.0" encoding="utf-8"?>
<!-- Generator: Adobe Illustrator 22.0.0, SVG Export Plug-In . SVG Version: 6.00 Build 0)  -->
<svg version="1.1" id="Layer_1" xmlns="http://www.w3.org/2000/svg" xmlns:xlink="http://www.w3.org/1999/xlink" x="0px" y="0px"
	 viewBox="0 0 512 512" style="enable-background:new 0 0 512 512;" xml:space="preserve">
<style type="text/css">
	.st0{fill:#DBDBDB;}
	.st1{fill:#FFFFFF;}
	.st2{fill:#E6E6E6;}
</style>
<g>
	<path class="st0" d="M361.9,108.9h129.5c8.9,0,16.2,7.2,16.2,16.2v263.2c0,8.9-7.2,16.2-16.2,16.2H361.9c-8.9,0-16.2-7.2-16.2-16.2
		V125.1C345.7,116.2,352.9,108.9,361.9,108.9"/>
	<rect x="353.3" y="147.9" class="st1" width="146.6" height="212.3"/>
	<path class="st0" d="M439.3,383.4c0,7-5.7,12.7-12.7,12.7c-7,0-12.7-5.7-12.7-12.7c0-7,5.7-12.7,12.7-12.7
		C433.6,370.7,439.3,376.4,439.3,383.4L439.3,383.4z M439.3,383.4"/>
	<path class="st0" d="M490.8,404.5h-16.9h16.7C490.6,404.5,490.7,404.5,490.8,404.5 M490.5,108.9H383.8h106.9
		C490.6,108.9,490.6,108.9,490.5,108.9"/>
	<path class="st0" d="M490.7,108.9H383.8l11.9,39h104.2v212.3h-39.5l13.5,44.2h16.9c9.3-0.1,16.7-7.7,16.7-17V125.9
		C507.5,116.6,500,109,490.7,108.9"/>
	<path class="st1" d="M499.9,314.6h-53.4l13.9,45.7h39.5V314.6 M499.9,147.9H395.7l46.4,152.1h57.8V147.9"/>
	<path class="st0" d="M447.4,200c-17,0-32.5-9.3-40.8-24.2c-1-1.8-2-3.4-2.9-4.5c-4.8-5.6-10.6-10.3-17.3-13.8l-5-2.6
		c-10.1-5.3-21.4-8-32.8-8h-27.3c-0.6,0-1.1,0-1.7,0.1c-6.8,0.8-12.1,6.6-12.1,13.7c0,3.8,1.5,7.3,4,9.8c2.5,2.5,5.9,4,9.7,4
		l-5.5,5.6c0,0,0.5,8.9,0.8,11l3.3,3.1c3.2,0-11.9,2.8-9.9,4.9c2.1,2.1,0.5,4.2,0.5,7.4c0,6.4,8.8,17.8,2.5,17.8l1.9,6.3
		c3.2,0,4.5-2.6,6.6-0.6c2.1,2.1,5.2,0.4,5.2,3.6c0,6.4-0.8,12.6-7.1,12.6l8.5,1.4c3.2,0,6.7,0.1,8.8,2.2c2.1,2.1,5.2-1.2,5.2,1.9
		c0,6.4-1.9,9.6-8.2,9.6l4.1,7.4c3.2,0-2.4,3.7-0.3,5.8c2.1,2.1-3.3-1-3.3,2.2c0,6.4,9.4,9.6,3.1,9.6h110.3V200H447.4z M447.4,200"
		/>
	<path class="st0" d="M249.3,174.6v19.7h-69.8c-6.4,0-12.1-2.2-16.3-5.8c-4.1-3.6-6.7-8.5-6.7-13.9H249.3"/>
	<path class="st0" d="M350.7,194.2h-79.9v-19.7h79.3C350.1,174.6,350.3,192.2,350.7,194.2L350.7,194.2z M350.7,194.2"/>
	<path class="st0" d="M335.8,197.6c2.1,2.1,3.4,5,3.4,8.1c0,6.4-5.2,11.5-11.5,11.5h-22.1c-6.4,0-11.5-5.2-11.5-11.5
		c0-6.4,5.1-11.5,11.5-11.5h22.1C330.8,194.2,333.7,195.5,335.8,197.6L335.8,197.6z M335.8,197.6"/>
	<path class="st0" d="M346.4,220.6c2.1,2.1,3.4,5,3.4,8.1c0,6.4-5.2,11.5-11.5,11.5h-22.1c-6.4,0-11.5-5.2-11.5-11.5
		c0-6.4,5.2-11.5,11.5-11.5h22.1C341.5,217.3,344.3,218.6,346.4,220.6L346.4,220.6z M346.4,220.6"/>
	<path class="st0" d="M357.1,243.7c2.1,2.1,3.4,5,3.4,8.1c0,6.4-5.2,11.5-11.5,11.5h-22.1c-6.4,0-11.5-5.2-11.5-11.5
		c0-6.4,5.2-11.5,11.5-11.5h22.1C352.1,240.3,355,241.6,357.1,243.7L357.1,243.7z M357.1,243.7"/>
	<path class="st0" d="M367.7,266.7c2.1,2.1,3.4,5,3.4,8.1c0,6.4-5.2,11.5-11.5,11.5h-22.1c-6.4,0-11.5-5.2-11.5-11.5
		c0-6.4,5.2-11.5,11.5-11.5h22.1C362.7,263.3,365.6,264.6,367.7,266.7L367.7,266.7z M367.7,266.7"/>
	<path class="st0" d="M359.9,266.7c-2.1-2.1-5-3.4-8.1-3.4h-10.6c6.4,0,11.5-5.2,11.5-11.5c0-3.2-1.3-6.1-3.4-8.1
		c-2.1-2.1-5-3.4-8.1-3.4h-10.6c6.4,0,11.5-5.2,11.5-11.5c0-3.2-1.3-6.1-3.4-8.1c-2.1-2.1-5-3.4-8.1-3.4h-10.6
		c6.4,0,11.5-5.2,11.5-11.5c0-3.2-1.3-6.1-3.4-8.1c-2.1-2.1-5-3.4-8.1-3.4h-22.1c-6.4,0-11.5,5.2-11.5,11.5
		c0,6.4,5.2,11.5,11.5,11.5h10.6c-6.4,0-11.5,5.2-11.5,11.5c0,6.4,5.2,11.5,11.5,11.5h10.6c-6.4,0-11.5,5.2-11.5,11.5
		c0,6.4,5.2,11.5,11.5,11.5h10.6c-6.4,0-11.5,5.2-11.5,11.5c0,6.4,5.2,11.5,11.5,11.5h22.1c6.4,0,11.5-5.1,11.5-11.5
		C363.3,271.7,362,268.8,359.9,266.7L359.9,266.7z M359.9,266.7"/>
	<path class="st0" d="M382.6,223.4c0,0-42.6,4.1-42.6-29.1h10.7v2.1c0,14.9,12.1,27,27,27H382.6z M382.6,223.4"/>
	<path class="st0" d="M321.3,174.6l6.4,19.7h23l-0.5-19.7H321.3z M321.3,174.6"/>
	<path class="st0" d="M198.8,174.6l-9.2,19.7c-5.4,0-10.3-2.2-13.9-5.8c-3.6-3.6-5.8-8.5-5.8-13.9H198.8z M198.8,174.6"/>
	<path class="st0" d="M281.6,174.6v19.7h-43v-19.7L281.6,174.6L281.6,174.6z M281.6,174.6"/>
	<path class="st0" d="M335.2,147c-1.8,6.9-8.1,12-15.6,12v-11.9c0.6-0.1,1.1-0.1,1.7-0.1H335.2z M335.2,147"/>
	<path class="st0" d="M328,205.8c0-4.5-3.6-8.1-8.1-8.1c-4.5,0-5.9,3.6-5.9,8.1c0,4.5,1.4,8.1,5.9,8.1
		C324.4,213.9,328,210.2,328,205.8L328,205.8z M328,205.8"/>
	<rect x="13.6" y="286.4" class="st2" width="146.5" height="14.5"/>
	<path class="st0" d="M347.9,251.8c0-4.5-3.6-8.1-8.1-8.1c-4.5,0-5.9,3.6-5.9,8.1c0,4.5,1.4,8.1,5.9,8.1
		C344.2,260,347.9,256.3,347.9,251.8L347.9,251.8z M347.9,251.8"/>
	<path class="st0" d="M337.9,228.8c0-4.5-3.6-8.1-8.1-8.1c-4.5,0-5.9,3.6-5.9,8.1c0,4.5,1.4,8.1,5.9,8.1
		C334.3,236.9,337.9,233.3,337.9,228.8L337.9,228.8z M337.9,228.8"/>
	<path class="st0" d="M358.9,274.8c0-4.5-3.6-8.1-8.1-8.1c-4.5,0-5.9,3.6-5.9,8.1c0,4.5,1.4,8.1,5.9,8.1
		C355.3,283,358.9,279.3,358.9,274.8L358.9,274.8z M358.9,274.8"/>
	<path class="st0" d="M499.5,200h-53.7v86.4h54.9L499.5,200z M499.5,200"/>
	<rect x="479.2" y="200" class="st0" width="21.5" height="86.4"/>
	<path class="st0" d="M167.9,125.9v261.5c0,9.4-7.6,17-17,17H23c-9.4,0-17-7.6-17-17V125.9c0-9.4,7.6-17,17-17h127.9
		C160.2,108.9,167.9,116.5,167.9,125.9"/>
	<rect x="13.6" y="147.9" class="st1" width="146.6" height="212.3"/>
	<path class="st0" d="M99.6,383.4c0,7-5.7,12.7-12.7,12.7c-7,0-12.7-5.7-12.7-12.7c0-7,5.7-12.7,12.7-12.7
		C93.9,370.7,99.6,376.4,99.6,383.4L99.6,383.4z M99.6,383.4"/>
	<path class="st0" d="M160.2,199v161.2h-39.5l13.5,44.2h16.7c9.4,0,17-7.6,17-17V205.2c-1.7-0.8-3.2-1.9-4.6-3
		C162.1,201.2,161.1,200.2,160.2,199 M150.9,108.9H44.1l11.9,39h104.2v40.4h7.6v-62.4C167.9,116.5,160.2,108.9,150.9,108.9"/>
	<path class="st0" d="M167.9,174.6h-11.3c0,4,1.4,7.6,3.7,10.7c0.9,1.2,1.9,2.2,3,3.2c1.4,1.2,2.9,2.2,4.6,3V174.6"/>
	<path class="st0" d="M230.4,213.9c2.1-2.1,3.3-4.9,3.4-8c0.1-6.4-5.5-11.7-11.9-11.7h-32.3c-5.4,0-10.3-2.2-13.9-5.8
		c-3.6-3.6-5.8-8.5-5.8-13.9h28.8c3.8,0,7.3-1.5,9.8-4c2.7-2.7,4.3-6.5,4-10.7c-0.5-7.3-6.9-12.8-14.2-12.8h-26.9
		c-11.4,0-22.7,2.7-32.8,8l-5,2.6c-6.7,3.5-12.5,8.2-17.3,13.8c-0.5,0.5-0.9,1.2-1.4,1.9C104.3,189.8,86.2,200,66.6,200h-1.1v86.3
		h125c3.2,0,6.1-1.3,8.1-3.4c2.1-2.1,3.4-5,3.4-8.1c0-6.4-5.2-11.5-11.5-11.5H201c3.2,0,6.1-1.3,8.1-3.4c2.1-2.1,3.4-5,3.4-8.1
		c0-6.4-5.2-11.5-11.5-11.5h10.6c3.2,0,6.1-1.3,8.1-3.4c2.1-2.1,3.4-5,3.4-8.1c0-6.4-5.2-11.5-11.5-11.5h10.6
		C225.5,217.3,228.4,216,230.4,213.9L230.4,213.9z M230.4,213.9"/>
	<path class="st0" d="M186.3,147c1.8,6.9,8.1,12,15.6,12v-11.9c-0.6-0.1-1.1-0.1-1.7-0.1H186.3z M186.3,147"/>
	<path class="st0" d="M68.4,200H13.6v86.4h55.9L68.4,200z M68.4,200"/>
	<rect x="13.6" y="200" class="st0" width="21.5" height="86.4"/>
	<g>
		<g>
			<path class="st0" d="M103.7,319.8C103.7,319.8,103.7,319.8,103.7,319.8c0-0.1,0-0.2,0-0.2c0,0,0,0,0,0c0-0.1,0-0.1-0.1-0.2
				c0,0,0,0,0,0c0,0,0-0.1-0.1-0.1c0,0,0,0,0-0.1c0,0,0,0,0,0c0,0,0-0.1-0.1-0.1c0,0,0,0,0,0c0-0.1-0.1-0.1-0.1-0.1c0,0,0,0,0,0
				c0,0-0.1-0.1-0.1-0.1c0,0,0,0,0,0c-0.1,0-0.1-0.1-0.2-0.1l-22.8-13l13.1-8.3l22,12.5l-9.3,5.8c-0.7,0.5-0.9,1.4-0.5,2.1
				c0.5,0.7,1.4,0.9,2.1,0.5l11.5-7.2c0.5-0.3,0.7-0.8,0.7-1.3c0-0.5-0.3-1-0.8-1.3L94,294.2c-0.5-0.3-1.1-0.3-1.6,0l-16.1,10.1
				c0,0,0,0,0,0l-8,5.1c0,0,0,0,0,0l-16.1,10.1c-0.5,0.3-0.7,0.8-0.7,1.3c0,0.5,0.3,1,0.8,1.3l25.1,14.3c0.2,0.1,0.5,0.2,0.8,0.2
				c0.3,0,0.6-0.1,0.8-0.2l11.5-7.2c0.7-0.5,0.9-1.4,0.5-2.1c-0.5-0.7-1.4-0.9-2.1-0.5l-10.7,6.7l-22-12.5l13.1-8.3L92.5,326v17.7
				c0,0.6,0.3,1.1,0.8,1.4c0.2,0.1,0.5,0.2,0.7,0.2c0.3,0,0.6-0.1,0.8-0.2l8.1-5.1c0.4-0.3,0.7-0.8,0.7-1.3V320c0,0,0,0,0,0
				C103.7,319.9,103.7,319.9,103.7,319.8L103.7,319.8z M95.6,340.8v-15.8c0-0.6-0.3-1.1-0.8-1.3l-22.8-13l5.1-3.2l22,12.5l-1.9,1.2
				c-0.7,0.5-0.9,1.4-0.5,2.1c0.3,0.5,0.8,0.7,1.3,0.7c0.3,0,0.6-0.1,0.8-0.2l1.7-1.1v14.9L95.6,340.8z M95.6,340.8"/>
			<path class="st0" d="M117.4,314.7l-11.5,7.2c-0.7,0.5-0.9,1.4-0.5,2.1c0.3,0.5,0.8,0.7,1.3,0.7c0.3,0,0.6-0.1,0.8-0.2l11.5-7.2
				c0.7-0.5,0.9-1.4,0.5-2.1C119.1,314.5,118.2,314.3,117.4,314.7L117.4,314.7z M117.4,314.7"/>
			<path class="st0" d="M88.6,332.9l-10.7,6.7l-24.3-13.8c-0.7-0.4-1.7-0.2-2.1,0.6c-0.4,0.7-0.2,1.7,0.6,2.1l25.1,14.3
				c0.2,0.1,0.5,0.2,0.8,0.2c0.3,0,0.6-0.1,0.8-0.2l11.5-7.2c0.7-0.5,0.9-1.4,0.5-2.1C90.3,332.6,89.3,332.4,88.6,332.9L88.6,332.9z
				 M88.6,332.9"/>
			<path class="st0" d="M117.4,320.9l-11.5,7.2c-0.7,0.5-0.9,1.4-0.5,2.1c0.3,0.5,0.8,0.7,1.3,0.7c0.3,0,0.6-0.1,0.8-0.2l11.5-7.2
				c0.7-0.5,0.9-1.4,0.5-2.1C119.1,320.7,118.2,320.5,117.4,320.9L117.4,320.9z M117.4,320.9"/>
			<path class="st0" d="M88.6,339.1l-10.7,6.7L53.7,332c-0.7-0.4-1.7-0.2-2.1,0.6c-0.4,0.7-0.2,1.7,0.6,2.1l25.1,14.3
				c0.2,0.1,0.5,0.2,0.8,0.2c0.3,0,0.6-0.1,0.8-0.2l11.5-7.2c0.7-0.5,0.9-1.4,0.5-2.1C90.3,338.8,89.3,338.6,88.6,339.1L88.6,339.1z
				 M88.6,339.1"/>
			<path class="st0" d="M117.4,327.1l-11.5,7.2c-0.7,0.5-0.9,1.4-0.5,2.1c0.3,0.5,0.8,0.7,1.3,0.7c0.3,0,0.6-0.1,0.8-0.2l11.5-7.2
				c0.7-0.5,0.9-1.4,0.5-2.1C119.1,326.9,118.2,326.7,117.4,327.1L117.4,327.1z M117.4,327.1"/>
			<path class="st0" d="M88.6,345.3L77.9,352l-24.3-13.8c-0.7-0.4-1.7-0.2-2.1,0.6c-0.4,0.7-0.2,1.7,0.6,2.1l25.1,14.3
				c0.2,0.1,0.5,0.2,0.8,0.2c0.3,0,0.6-0.1,0.8-0.2l11.5-7.2c0.7-0.5,0.9-1.4,0.5-2.1C90.3,345,89.3,344.8,88.6,345.3L88.6,345.3z
				 M88.6,345.3"/>
		</g>
	</g>
	<g>
		<g>
			<path class="st0" d="M444.7,319.9C444.7,319.9,444.7,319.9,444.7,319.9c0-0.1,0-0.2,0-0.2c0,0,0,0,0,0c0-0.1,0-0.1-0.1-0.2
				c0,0,0,0,0,0c0,0,0-0.1-0.1-0.1c0,0,0,0,0-0.1c0,0,0,0,0,0c0,0,0-0.1-0.1-0.1c0,0,0,0,0,0c0-0.1-0.1-0.1-0.1-0.1c0,0,0,0,0,0
				c0,0-0.1-0.1-0.1-0.1c0,0,0,0,0,0c-0.1,0-0.1-0.1-0.2-0.1l-22.8-13l13.1-8.3l22,12.5l-9.3,5.8c-0.7,0.5-0.9,1.4-0.5,2.1
				c0.5,0.7,1.4,0.9,2.1,0.5l11.5-7.2c0.5-0.3,0.7-0.8,0.7-1.3c0-0.5-0.3-1-0.8-1.3L435,294.4c-0.5-0.3-1.1-0.3-1.6,0l-16.1,10.1
				c0,0,0,0,0,0l-8,5.1c0,0,0,0,0,0l-16.1,10.1c-0.5,0.3-0.7,0.8-0.7,1.3c0,0.5,0.3,1,0.8,1.3l25.1,14.3c0.2,0.1,0.5,0.2,0.8,0.2
				c0.3,0,0.6-0.1,0.8-0.2l11.5-7.2c0.7-0.5,0.9-1.4,0.5-2.1c-0.5-0.7-1.4-0.9-2.1-0.5l-10.7,6.7l-22-12.5l13.1-8.3l23.5,13.4v17.7
				c0,0.6,0.3,1.1,0.8,1.4c0.2,0.1,0.5,0.2,0.7,0.2c0.3,0,0.6-0.1,0.8-0.2l8.1-5.1c0.4-0.3,0.7-0.8,0.7-1.3v-18.6c0,0,0,0,0,0
				C444.7,320,444.7,320,444.7,319.9L444.7,319.9z M436.7,341v-15.8c0-0.6-0.3-1.1-0.8-1.3l-22.8-13l5.1-3.2l22,12.5l-1.9,1.2
				c-0.7,0.5-0.9,1.4-0.5,2.1c0.3,0.5,0.8,0.7,1.3,0.7c0.3,0,0.6-0.1,0.8-0.2l1.7-1.1v14.9L436.7,341z M436.7,341"/>
			<path class="st0" d="M458.5,314.8l-11.5,7.2c-0.7,0.5-0.9,1.4-0.5,2.1c0.3,0.5,0.8,0.7,1.3,0.7c0.3,0,0.6-0.1,0.8-0.2l11.5-7.2
				c0.7-0.5,0.9-1.4,0.5-2.1C460.1,314.6,459.2,314.4,458.5,314.8L458.5,314.8z M458.5,314.8"/>
			<path class="st0" d="M429.7,333l-10.7,6.7l-24.3-13.8c-0.7-0.4-1.7-0.2-2.1,0.6c-0.4,0.7-0.2,1.7,0.6,2.1l25.1,14.3
				c0.2,0.1,0.5,0.2,0.8,0.2c0.3,0,0.6-0.1,0.8-0.2l11.5-7.2c0.7-0.5,0.9-1.4,0.5-2.1C431.3,332.8,430.4,332.5,429.7,333L429.7,333z
				 M429.7,333"/>
			<path class="st0" d="M458.5,321l-11.5,7.2c-0.7,0.5-0.9,1.4-0.5,2.1c0.3,0.5,0.8,0.7,1.3,0.7c0.3,0,0.6-0.1,0.8-0.2l11.5-7.2
				c0.7-0.5,0.9-1.4,0.5-2.1C460.1,320.8,459.2,320.6,458.5,321L458.5,321z M458.5,321"/>
			<path class="st0" d="M429.7,339.2l-10.7,6.7l-24.3-13.8c-0.7-0.4-1.7-0.2-2.1,0.6c-0.4,0.7-0.2,1.7,0.6,2.1l25.1,14.3
				c0.2,0.1,0.5,0.2,0.8,0.2c0.3,0,0.6-0.1,0.8-0.2l11.5-7.2c0.7-0.5,0.9-1.4,0.5-2.1C431.3,338.9,430.4,338.7,429.7,339.2
				L429.7,339.2z M429.7,339.2"/>
			<path class="st0" d="M458.5,327.2l-11.5,7.2c-0.7,0.5-0.9,1.4-0.5,2.1c0.3,0.5,0.8,0.7,1.3,0.7c0.3,0,0.6-0.1,0.8-0.2l11.5-7.2
				c0.7-0.5,0.9-1.4,0.5-2.1C460.1,327,459.2,326.8,458.5,327.2L458.5,327.2z M458.5,327.2"/>
			<path class="st0" d="M429.7,345.4l-10.7,6.7l-24.3-13.8c-0.7-0.4-1.7-0.2-2.1,0.6c-0.4,0.7-0.2,1.7,0.6,2.1l25.1,14.3
				c0.2,0.1,0.5,0.2,0.8,0.2c0.3,0,0.6-0.1,0.8-0.2l11.5-7.2c0.7-0.5,0.9-1.4,0.5-2.1C431.3,345.1,430.4,344.9,429.7,345.4
				L429.7,345.4z M429.7,345.4"/>
		</g>
	</g>
</g>
</svg>
