<svg xmlns="http://www.w3.org/2000/svg" xmlns:xlink="http://www.w3.org/1999/xlink" viewBox="0 0 512 512">
  <defs>
    <style>
      .cls-1 {
        clip-path: url(#clip-reload);
      }
    </style>
    <clipPath id="clip-reload">
      <rect width="512" height="512"/>
    </clipPath>
  </defs>
  <g id="reload" class="cls-1">
    <path id="reload-2" data-name="reload" d="M417.195,359.2C417.195,238.882,319.314,141,199,141s-218.2,97.882-218.2,218.2A12.942,12.942,0,0,0-6.253,372.137,12.943,12.943,0,0,0,6.688,359.2C6.688,253.154,92.959,166.884,199,166.884S391.312,253.155,391.312,359.2,305.041,551.507,199,551.507H176.547l32.1-35.937a12.942,12.942,0,1,0-19.3-17.244L143.456,549.7a22.127,22.127,0,0,0,0,29.5l45.893,51.372a12.942,12.942,0,1,0,19.3-17.244l-32.1-35.937H199C319.314,577.39,417.195,479.508,417.195,359.2Z" transform="translate(57.195 -131.946)"/>
  </g>
</svg>
