<?xml version="1.0" encoding="utf-8"?>
<!-- Generator: Adobe Illustrator 22.0.0, SVG Export Plug-In . SVG Version: 6.00 Build 0)  -->
<svg version="1.1" id="Layer_1" xmlns="http://www.w3.org/2000/svg" xmlns:xlink="http://www.w3.org/1999/xlink" x="0px" y="0px"
	 viewBox="0 0 512 512" style="enable-background:new 0 0 512 512;" xml:space="preserve">
<path d="M148.7,97.8c-1.6-4.9-5.5-8.6-10.5-9.8l-30.8-7.8L90.5,53.3c-5.5-8.6-19.7-8.6-25.2,0L48.4,80.2L16.6,88
	c-4.9,1.3-8.9,5-10.5,9.8c-1.6,4.9-0.6,10.2,2.7,14.1l20.3,24.4l-2,31.7c-0.3,5.1,2,10,6.1,13c4.1,3,10.5,3.7,15.2,1.8l29.5-11.7
	l29.5,11.7c4.8,1.9,10.1,1.2,14.3-1.8c4.1-3,6.4-7.9,6.1-13l-2.1-31.7l20.3-24.4C149.2,108,150.3,102.7,148.7,97.8z"/>
<path d="M341.4,63.5c-1.7-5.3-6.2-9.1-11.6-10.1l-40.8-7l-19.3-36c-5.2-9.8-21.2-9.8-26.3,0l-19.3,36l-40.8,7
	c-5.5,0.9-9.9,4.8-11.6,10.1c-1.7,5.3-0.4,11,3.5,15l28.9,29.7l-5.9,41c-0.8,5.5,1.5,10.9,6,14.2c4.5,3.2,10.4,3.7,15.3,1.3
	l37.2-18.3l37.2,18.3c4.9,2.4,10.9,1.9,15.3-1.3c4.5-3.2,6.8-8.7,6-14.2l-5.9-41l28.9-29.7C341.8,74.5,343.1,68.7,341.4,63.5z"/>
<path d="M506.9,97.8c-1.6-4.9-5.5-8.6-10.5-9.8l-31.8-7.8l-16.9-26.8c-5.5-8.6-19.7-8.6-25.2,0l-16.9,26.8L374.8,88
	c-4.9,1.3-8.9,5-10.5,9.8c-1.6,4.9-0.6,10.2,2.7,14.1l20.3,24.4l-2,31.7c-0.3,5.1,2,10,6.1,13c4.1,3,9.5,3.7,14.3,1.8l29.5-11.7
	l29.5,11.7c4.8,1.9,10.1,1.2,14.3-1.8c4.1-3,7.4-7.9,7.1-13l-3.1-31.7l21.3-24.4C507.4,108,508.4,102.7,506.9,97.8z"/>
<path d="M92.3,421.7h89.3v-121H92.3V421.7z M122.1,345.3c0-8.2,6.7-14.9,14.9-14.9s14.9,6.7,14.9,14.9v31.8
	c0,8.2-6.7,14.9-14.9,14.9s-14.9-6.7-14.9-14.9V345.3z"/>
<path d="M330.4,421.7h89.3v-121h-89.3V421.7z M360.2,345.3c0-8.2,6.7-14.9,14.9-14.9s14.9,6.7,14.9,14.9v31.8
	c0,8.2-6.7,14.9-14.9,14.9s-14.9-6.7-14.9-14.9V345.3z"/>
<path d="M211.4,421.7h89.3v-121h-89.3V421.7z M241.1,345.3c0-8.2,6.7-14.9,14.9-14.9s14.9,6.7,14.9,14.9v31.8
	c0,8.2-6.7,14.9-14.9,14.9s-14.9-6.7-14.9-14.9V345.3z"/>
<path d="M464.4,211.4H47.6C23,211.4,2,231.4,2,256v210.3C2,491,23,511,47.6,511h416.7c24.6,0,45.6-20,45.6-44.6V256
	C510,231.4,489,211.4,464.4,211.4z M449.5,436.6c0,8.2-6.7,14.9-14.9,14.9H77.4c-8.2,0-14.9-6.7-14.9-14.9V285.8
	c0-8.2,6.7-14.9,14.9-14.9h357.2c8.2,0,14.9,6.7,14.9,14.9V436.6z"/>
</svg>
