<?xml version="1.0" encoding="utf-8"?>
<!-- Generator: Adobe Illustrator 22.0.0, SVG Export Plug-In . SVG Version: 6.00 Build 0)  -->
<svg version="1.1" id="Layer_1" xmlns="http://www.w3.org/2000/svg" xmlns:xlink="http://www.w3.org/1999/xlink" x="0px" y="0px"
	 viewBox="0 0 512 512" style="enable-background:new 0 0 512 512;" xml:space="preserve">
	 <style type="text/css">
		.st0{clip-path:url(#SVGID_2_);fill:#dbdbdb;}
	</style>
<path class="st0" d="M463.1,93.6H261.4L235.5,18c-1.4-4.2-5.3-7-9.8-7H50.3C27.6,11,9,29.5,9,52.3v330.2c0,22.8,18.5,41.3,41.3,41.3h199.2
	l28.4,75.9c1.5,4,5.4,6.7,9.7,6.7h175.4c22.8,0,41.3-18.5,41.3-41.3V134.8C504.4,112.1,485.8,93.6,463.1,93.6z M225.7,341.2H81.3
	c-5.7,0-10.3-4.6-10.3-10.3s4.6-10.3,10.3-10.3h144.5c5.7,0,10.3,4.6,10.3,10.3S231.4,341.2,225.7,341.2z M225.7,279.3H81.3
	c-5.7,0-10.3-4.6-10.3-10.3s4.6-10.3,10.3-10.3h144.5c5.7,0,10.3,4.6,10.3,10.3S231.4,279.3,225.7,279.3z M225.7,196.7H81.3
	c-5.7,0-10.3-4.6-10.3-10.3s4.6-10.3,10.3-10.3h1c4.1-28.2,24.4-50.9,51.2-58.7c-0.2-1.1-0.6-2-0.6-3.2c0-11.4,9.3-20.6,20.6-20.6
	s20.6,9.3,20.6,20.6c0,1.1-0.5,2.1-0.6,3.2c26.8,7.8,47.1,30.6,51.2,58.7h1c5.7,0,10.3,4.6,10.3,10.3S231.4,196.7,225.7,196.7z
	 M483.7,465.1c0,11.4-9.3,20.6-20.6,20.6H310.4l57.3-65.4c0,0,0.4-0.5,0.6-0.8c1.9-2.7,2.4-6.2,1.4-9.3l-2.4-7h64.9
	c5.7,0,10.3-4.6,10.3-10.3c0-5.7-4.6-10.3-10.3-10.3h-71.9l-14.1-41.3h86.1c5.7,0,10.3-4.6,10.3-10.3c0-5.7-4.6-10.3-10.3-10.3H339
	l-14.1-41.3h107.2c5.7,0,10.3-4.6,10.3-10.3s-4.6-10.3-10.3-10.3H317.8l-14.1-41.3h128.4c5.7,0,10.3-4.6,10.3-10.3
	s-4.6-10.3-10.3-10.3H296.7l-28.2-82.6h194.7c11.4,0,20.6,9.3,20.6,20.6V465.1z"/>
</svg>
