<?xml version="1.0" encoding="utf-8"?>
<!-- Generator: Adobe Illustrator 22.0.0, SVG Export Plug-In . SVG Version: 6.00 Build 0)  -->
<svg version="1.1" id="Layer_1" xmlns="http://www.w3.org/2000/svg" xmlns:xlink="http://www.w3.org/1999/xlink" x="0px" y="0px"
	 viewBox="0 0 512 512" style="enable-background:new 0 0 512 512;" xml:space="preserve">
<polygon points="287.3,380.7 256,317.3 224.7,380.7 154.7,390.9 205.3,440.3 193.4,510 256,477.1 318.6,510 306.7,440.3 
	357.3,390.9 "/>
<polygon points="510.6,345.9 450,337.1 422.9,282.1 395.8,337.1 335.2,345.9 379.1,388.6 368.7,449 422.9,420.5 477.1,449 
	466.8,388.6 "/>
<polygon points="176.8,345.9 116.2,337.1 89.1,282.1 62,337.1 1.4,345.9 45.2,388.6 34.9,449 89.1,420.5 143.3,449 132.9,388.6 "/>
<path d="M203.8,182.6c-26.3,9.8-45.1,35.2-45.1,64.9v58.9h194.7v-58.9c0-29.7-18.8-55.1-45.1-64.9c8.5-11.1,13.6-24.9,13.6-40
	c0-36.3-29.5-65.8-65.8-65.8s-65.8,29.5-65.8,65.8C190.2,157.7,195.3,171.6,203.8,182.6z"/>
<rect x="240.9" y="2" width="30.2" height="49.8"/>
<rect x="159" y="35.9" transform="matrix(0.7071 -0.7071 0.7071 0.7071 8.0062 140.9163)" width="30.2" height="49.8"/>
<rect x="115.3" y="127.6" width="49.8" height="30.2"/>
<rect x="346.9" y="127.6" width="49.8" height="30.2"/>
<rect x="313" y="45.7" transform="matrix(0.7071 -0.7071 0.7071 0.7071 55.9713 256.7284)" width="49.8" height="30.2"/>
</svg>
