<?xml version="1.0" encoding="utf-8"?>
<!-- Generator: Adobe Illustrator 22.0.0, SVG Export Plug-In . SVG Version: 6.00 Build 0)  -->
<svg version="1.1" id="Layer_1" xmlns="http://www.w3.org/2000/svg" xmlns:xlink="http://www.w3.org/1999/xlink" x="0px" y="0px"
	 viewBox="0 0 512 512" style="enable-background:new 0 0 512 512;" xml:space="preserve">
	 <style type="text/css">
		.st0{clip-path:url(#SVGID_2_);fill:#dbdbdb;}
	</style>
<g>
	<path class="st0" d="M488.4,334h-38.7c-11.5,0-19.2,7.7-19.2,19.4v48.3c0,5.8-3.9,9.6-9.7,9.6H92.1c-5.9,0-9.7-3.9-9.7-9.6v-48.3
		c0-11.6-7.7-19.4-19.4-19.4H24.4C12.7,334,5,341.7,5,353.3v115.9c0,11.6,7.7,19.4,19.4,19.4h464.1c11.6,0,19.4-7.7,19.4-19.4V353.3
		C507.8,341.7,500,334,488.4,334L488.4,334z"/>
	<path class="st0" d="M153.9,200.6c3.9,3.9,7.7,5.8,13.5,5.8c5.9,0,9.7-1.9,13.6-5.8l19.3-19.4c5.9-5.9,17.5-2,17.5,7.8v127.6
		c0,11.6,7.7,19.4,19.4,19.4h38.6c11.6,0,19.4-7.7,19.4-19.4V189c0-7.8,9.6-13.6,17.4-7.8l19.4,19.4c3.9,3.9,7.7,5.8,13.5,5.8
		c5.9,0,9.7-1.9,13.6-5.8l27.1-27.1c3.9-3.9,5.8-7.7,5.8-13.5c0-5.9-1.9-9.7-5.8-13.6l-116.1-116c-3.9-3.9-9.7-5.8-13.6-5.8
		c-3.9,0-9.6,1.9-13.5,5.8l-116,116c-3.9,3.9-5.8,7.7-5.8,13.6c0,5.8,1.9,9.6,5.8,13.5L153.9,200.6z"/>
</g>
</svg>
