<?xml version="1.0" encoding="utf-8"?>
<!-- Generator: Adobe Illustrator 22.0.0, SVG Export Plug-In . SVG Version: 6.00 Build 0)  -->
<svg version="1.1" id="Layer_1" xmlns="http://www.w3.org/2000/svg" xmlns:xlink="http://www.w3.org/1999/xlink" x="0px" y="0px"
	 viewBox="0 0 512 512" style="enable-background:new 0 0 512 512;" xml:space="preserve">
<style type="text/css">
	.st0{stroke:#dbdbdb;stroke-width:2;stroke-miterlimit:10;fill:#dbdbdb}
</style>

<g>
	<path class="st0" d="M255.8,346.7c76.8,0,139.4-76.5,139.4-170.4C395.2,82.4,332.6,6,255.8,6c-37.9,0-73.3,18.1-99.8,51.2
		c-25.6,32-39.6,74.3-39.6,119.2C116.4,270.3,178.9,346.7,255.8,346.7L255.8,346.7z M255.8,37c59.7,0,108.3,62.5,108.3,139.4
		s-48.6,139.4-108.3,139.4c-59.8,0-108.4-62.5-108.4-139.4S196,37,255.8,37L255.8,37z M364.1,315.7c-8.5,0-15.4,6.9-15.4,15.5
		c0,8.5,6.9,15.5,15.4,15.5c59.8,0,108.4,48.6,108.4,108.3c0,8.6-6.9,15.5-15.5,15.5H54.4c-8.5,0-15.4-6.9-15.4-15.5
		c0-59.7,48.6-108.3,108.3-108.3c8.6,0,15.5-7,15.5-15.5c0-8.6-6.9-15.5-15.5-15.5C70.5,315.7,8,378.3,8,455.1
		c0,25.6,20.9,46.5,46.4,46.5h402.7c25.6,0,46.5-20.9,46.5-46.5C503.6,378.3,441.1,315.7,364.1,315.7L364.1,315.7z M364.1,315.7"/>
</g>
</svg>
