<?xml version="1.0" encoding="utf-8"?>
<!-- Generator: Adobe Illustrator 22.0.0, SVG Export Plug-In . SVG Version: 6.00 Build 0)  -->
<svg version="1.1" id="Layer_1" xmlns="http://www.w3.org/2000/svg" xmlns:xlink="http://www.w3.org/1999/xlink" x="0px" y="0px"
	 viewBox="0 0 512 512" style="enable-background:new 0 0 512 512;" xml:space="preserve">
<style type="text/css">
	.st0{clip-path:url(#SVGID_2_);}
</style>
<g>
	<g>
		<defs>
			<rect id="SVGID_1_" x="7" y="19.6" width="496.8" height="476.7"/>
		</defs>
		<clipPath id="SVGID_2_">
			<use xlink:href="#SVGID_1_"  style="overflow:visible;"/>
		</clipPath>
		<path class="st0" d="M122.9,110.4l197.9-54l-10.5-21.2c-6.9-13.8-23.6-19.5-37.4-12.6L95.9,110.4H122.9z M122.9,110.4"/>
		<path class="st0" d="M382.3,57.9c-2.5,0-4.9,0.3-7.4,1l-46.5,12.7l-142,38.8h231.4l-8.7-31.9C405.9,66,394.6,57.9,382.3,57.9
			L382.3,57.9z M382.3,57.9"/>
		<path class="st0" d="M447,129.9H34.8c-8.8,0-16.7,4.1-21.8,10.5c-2.3,3-4.1,6.4-5.1,10.1c-0.6,2.3-1,4.8-1,7.3v310.6
			c0,15.4,12.5,27.9,27.9,27.9h412.1c15.4,0,27.9-12.5,27.9-27.9v-77.8H309.3c-26.2,0-47.4-21.2-47.4-47.4v-62
			c0-12.8,5.1-24.5,13.4-33c7.4-7.6,17.2-12.7,28.3-14c1.8-0.2,3.7-0.3,5.6-0.3h165.5v-76.1C474.8,142.4,462.3,129.9,447,129.9
			L447,129.9z M447,129.9"/>
	</g>
	<path d="M494.3,260.5c-2.8-2.6-6.1-4.5-9.8-5.8c-2.8-0.9-5.9-1.5-9-1.5H309.3c-15.4,0-27.9,12.5-27.9,27.9v62.1
		c0,15.4,12.5,27.9,27.9,27.9h166.2c3.2,0,6.2-0.6,9-1.5c3.7-1.2,7-3.2,9.8-5.8c5.6-5.1,9.1-12.4,9.1-20.6v-62.1
		C503.4,273,499.9,265.6,494.3,260.5L494.3,260.5z M367.6,317.7c0,7.7-6.2,13.9-13.9,13.9h-9.3c-7.7,0-13.9-6.2-13.9-13.9v-9.3
		c0-4.5,2.1-8.4,5.4-10.9c2.4-1.8,5.4-3,8.6-3h9.3c7.7,0,13.9,6.2,13.9,13.9V317.7z M367.6,317.7"/>
</g>
</svg>
