<?xml version="1.0" encoding="utf-8"?>
<!-- Generator: Adobe Illustrator 22.0.0, SVG Export Plug-In . SVG Version: 6.00 Build 0)  -->
<svg version="1.1" id="Layer_1" xmlns="http://www.w3.org/2000/svg" xmlns:xlink="http://www.w3.org/1999/xlink" x="0px" y="0px"
	 viewBox="0 0 1080 600" style="enable-background:new 0 0 1080 600;" xml:space="preserve">
<style type="text/css">
	.st0{clip-path:url(#SVGID_2_);fill:#46b692;}
</style>
<g>
	<g>
		<defs>
			<rect id="SVGID_1_" x="391.6" y="197" width="296.6" height="206"/>
		</defs>
		<clipPath id="SVGID_2_">
			<use xlink:href="#SVGID_1_"  style="overflow:visible;"/>
		</clipPath>
		<path class="st0" d="M494.1,400c3.9,4.1,10.5,4.1,14.5,0c3.9-3.9,3.9-10.5,0-14.4L435,311.9h243.1c5.7,0,10.2-4.5,10.2-10.2
			c0-5.6-4.5-10.3-10.2-10.3H435l73.7-73.5c3.9-4.1,3.9-10.6,0-14.5c-4.1-4.1-10.6-4.1-14.5,0L403,294.4c-4.1,3.9-4.1,10.5,0,14.4
			L494.1,400z M494.1,400"/>
	</g>
</g>
</svg>
