<?xml version="1.0" encoding="utf-8"?>
<!-- Generator: Adobe Illustrator 22.0.0, SVG Export Plug-In . SVG Version: 6.00 Build 0)  -->
<svg version="1.1" id="Layer_1" xmlns="http://www.w3.org/2000/svg" xmlns:xlink="http://www.w3.org/1999/xlink" x="0px" y="0px"
	 viewBox="0 0 512 512" style="enable-background:new 0 0 512 512;" xml:space="preserve">
<style type="text/css">
	.st0{fill:#41C5D3;}
	.st1{fill:#ED7161;}
	.st2{fill:#FFFFFF;}
</style>
<path class="st0" d="M256,510C116.5,510,3,396.5,3,257c0-67.3,26.2-130.8,73.8-178.5c6.6-6.6,17.3-6.6,23.9,0
	c6.6,6.6,6.6,17.3,0,23.9c-41.2,41.3-64,96.4-64,154.8c0,121,98.3,219.3,219.3,219.3S475.3,378,475.3,257
	c0-115.3-89.4-209.9-202.4-218.6v90.7c0,9.3-7.7,16.9-16.9,16.9c-9.3,0-16.9-7.5-16.9-16.9V20.9c0-9.3,7.7-16.9,16.9-16.9
	c139.5,0,253,113.5,253,253S395.5,510,256,510L256,510z"/>
<path class="st0" d="M171.7,173.6l109.2,78.9c10.7,7.8,11.9,23.3,2.5,32.8c-9.4,9.4-24.9,8.2-32.8-2.5L171.7,173.6z"/>
<path class="st1" d="M509,408.6c0,55.9-45.3,101.2-101.2,101.2c-55.9,0-101.2-45.3-101.2-101.2c0-55.9,45.3-101.2,101.2-101.2
	C463.7,307.4,509,352.7,509,408.6L509,408.6z"/>
<path class="st2" d="M419.7,408.6l29.8-29.9c3.4-3.4,3.4-8.6,0-11.9c-3.2-3.4-8.6-3.4-11.9,0l-29.9,29.8l-29.8-29.8
	c-3.2-3.4-8.6-3.4-11.9,0c-3.2,3.2-3.2,8.6,0,11.9l29.8,29.9l-29.8,29.8c-3.2,3.2-3.2,8.6,0,11.9c1.6,1.6,3.7,2.5,5.9,2.5
	c2.1,0,4.3-0.9,5.9-2.5l29.8-29.8l29.9,29.8c1.6,1.6,3.7,2.5,5.9,2.5c2.1,0,4.3-0.9,5.9-2.5c3.4-3.4,3.4-8.6,0-11.9L419.7,408.6z"/>
</svg>
