<?xml version="1.0" encoding="utf-8"?>
<!-- Generator: Adobe Illustrator 22.0.0, SVG Export Plug-In . SVG Version: 6.00 Build 0)  -->
<svg version="1.1" id="Layer_1" xmlns="http://www.w3.org/2000/svg" xmlns:xlink="http://www.w3.org/1999/xlink" x="0px" y="0px"
	 viewBox="0 0 512 512" style="enable-background:new 0 0 512 512;" xml:space="preserve">
	 <style type="text/css">
	.st0{clip-path:url(#SVGID_2_);fill:#dbdbdb;}
</style>
<g>
	<path class="st0" d="M52,271.2v220.2c0,8.7,7,15.7,15.7,15.7h377.5c8.7,0,15.7-7,15.7-15.7V271.2c0-8.7-7-15.7-15.7-15.7H146.4V145.4
		c0-60.7,49.4-110.1,110.1-110.1s110.1,49.4,110.1,110.1v31.5c0,8.7,7,15.7,15.7,15.7s15.7-7,15.7-15.7v-31.5
		c0-78.1-63.5-141.6-141.6-141.6S114.9,67.3,114.9,145.4v110.1H67.7C59,255.5,52,262.5,52,271.2z M83.5,287h346.1v188.8H83.5V287z"
		/>
	<path class="st0" d="M256.5,318.4c-26.1,0-47.2,21.2-47.2,47.2c0,20.5,13.2,38,31.5,44.4v18.5c0,8.7,7,15.7,15.7,15.7s15.7-7,15.7-15.7v-18.5
		c18.3-6.5,31.5-24,31.5-44.4C303.7,339.6,282.6,318.4,256.5,318.4z M256.5,381.4c-8.6,0-15.7-7-15.7-15.7s7-15.7,15.7-15.7
		c8.6,0,15.7,7,15.7,15.7S265.1,381.4,256.5,381.4z"/>
</g>
</svg>
