<?xml version="1.0" encoding="utf-8"?>
<!-- Generator: Adobe Illustrator 22.0.0, SVG Export Plug-In . SVG Version: 6.00 Build 0)  -->
<svg version="1.1" id="Layer_1" xmlns="http://www.w3.org/2000/svg" xmlns:xlink="http://www.w3.org/1999/xlink" x="0px" y="0px"
	 viewBox="0 0 512 512" style="enable-background:new 0 0 512 512;" xml:space="preserve">
	 <style type="text/css">
	.st0{clip-path:url(#SVGID_2_);fill:#dbdbdb;}
</style>
<g>
	<path class="st0" d="M355.3,108.2c0-10.4-8.4-18.8-18.8-18.8h-72.8c-10.4,0-18.8,8.4-18.8,18.8V181c0,10.4,8.4,18.8,18.8,18.8h72.8
		c10.4,0,18.8-8.4,18.8-18.8V108.2z"/>
	<path class="st0" d="M511,108.2c0-10.4-8.4-18.8-18.8-18.8h-72.8c-10.4,0-18.8,8.4-18.8,18.8V181c0,10.4,8.4,18.8,18.8,18.8h72.8
		c10.4,0,18.8-8.4,18.8-18.8L511,108.2L511,108.2z"/>
	<path class="st0" d="M355.3,263.9c0-10.4-8.4-18.8-18.8-18.8h-72.8c-10.4,0-18.8,8.4-18.8,18.8v72.8c0,10.4,8.4,18.8,18.8,18.8h72.8
		c10.4,0,18.8-8.4,18.8-18.8V263.9z"/>
	<path class="st0" d="M511,263.9c0-10.4-8.4-18.8-18.8-18.8h-72.8c-10.4,0-18.8,8.4-18.8,18.8v72.8c0,10.4,8.4,18.8,18.8,18.8h72.8
		c10.4,0,18.8-8.4,18.8-18.8L511,263.9L511,263.9z"/>
	<path class="st0" d="M199.7,263.9c0-10.4-8.4-18.8-18.8-18.8H108c-10.4,0-18.8,8.4-18.8,18.8v72.8c0,10.4,8.4,18.8,18.8,18.8h72.8
		c10.4,0,18.8-8.4,18.8-18.8V263.9z"/>
	<path class="st0" d="M336.5,400.7h-72.8c-10.4,0-18.8,8.4-18.8,18.8v72.8c0,10.4,8.4,18.8,18.8,18.8h72.8c10.4,0,18.8-8.4,18.8-18.8v-72.8
		C355.3,409.2,346.9,400.7,336.5,400.7L336.5,400.7z"/>
	<path class="st0" d="M419.4,511.2h72.8c10.4,0,18.8-8.4,18.8-18.8v-72.8c0-10.4-8.4-18.8-18.8-18.8h-72.8c-10.4,0-18.8,8.4-18.8,18.8v72.8
		C400.5,502.8,409,511.2,419.4,511.2L419.4,511.2z"/>
	<path class="st0" d="M180.8,400.7H108c-10.4,0-18.8,8.4-18.8,18.8v72.8c0,10.4,8.4,18.8,18.8,18.8h72.8c10.4,0,18.8-8.4,18.8-18.8v-72.8
		C199.7,409.2,191.2,400.7,180.8,400.7L180.8,400.7z"/>
	<polyline points="152.9,49.2 152.9,152.9 49.2,152.9 49.2,49.2 152.9,49.2 	"/>
	<path class="st0" d="M170.8,2H31.3C15.1,2,2,15.1,2,31.3v143c0,14.3,11.6,25.8,25.8,25.8h143c16.1,0,29.3-13.1,29.3-29.3V31.3
		C200.1,15.1,187,2,170.8,2L170.8,2z"/>
	<path class="st0" d="M170.8,2"/>
</g>
</svg>
