<?xml version="1.0" encoding="utf-8"?>
<!-- Generator: Adobe Illustrator 22.0.0, SVG Export Plug-In . SVG Version: 6.00 Build 0)  -->
<svg version="1.1" id="Layer_1" xmlns="http://www.w3.org/2000/svg" xmlns:xlink="http://www.w3.org/1999/xlink" x="0px" y="0px"
	 viewBox="0 0 512 512" style="enable-background:new 0 0 512 512;" xml:space="preserve">
	 <style type="text/css">
	.st0{clip-path:url(#SVGID_2_);fill:#dbdbdb;}
</style>
<g>
	<path class="st0" d="M244,227c0,9.4-7.6,17-17,17H19c-9.4,0-17-7.6-17-17V19C2,9.6,9.6,2,19,2h208c9.4,0,17,7.6,17,17V227z"/>
	<path class="st0" d="M511.5,227c0,9.4-7.6,17-17,17h-208c-9.4,0-17-7.6-17-17V19c0-9.4,7.6-17,17-17h208c9.4,0,17,7.6,17,17L511.5,227
		L511.5,227z"/>
	<path class="st0" d="M244,494.5c0,9.4-7.6,17-17,17H19c-9.4,0-17-7.6-17-17v-208c0-9.4,7.6-17,17-17h208c9.4,0,17,7.6,17,17V494.5z"/>
	<path class="st0" d="M511.5,494.5c0,9.4-7.6,17-17,17h-208c-9.4,0-17-7.6-17-17v-208c0-9.4,7.6-17,17-17h208c9.4,0,17,7.6,17,17L511.5,494.5
		L511.5,494.5z"/>
</g>
</svg>
