<?xml version="1.0" encoding="utf-8"?>
<!-- Generator: Adobe Illustrator 22.0.0, SVG Export Plug-In . SVG Version: 6.00 Build 0)  -->
<svg version="1.1" id="Layer_1" xmlns="http://www.w3.org/2000/svg" xmlns:xlink="http://www.w3.org/1999/xlink" x="0px" y="0px"
	 viewBox="0 0 512 512" style="enable-background:new 0 0 512 512;" xml:space="preserve">
<style type="text/css">
	.st0{fill:#41C5D3;}
	.st1{fill:#3FEF4B;}
	.st2{fill:#FFFFFF;}
</style>
<path class="st0" d="M256,511C116,511,2,397,2,257c0-67.7,26.3-131.3,74.1-179.4c6.6-6.6,17.4-6.6,24,0c6.6,6.6,6.6,17.4,0,24
	C58.7,143.3,35.9,198.4,35.9,257c0,121.3,98.9,220.1,220.1,220.1S476.1,378.3,476.1,257c0-115.8-89.7-210.8-203.2-219.4v91.1
	c0,9.4-7.6,16.9-16.9,16.9c-9.4,0-16.9-7.6-16.9-16.9V19.9c0-9.4,7.6-16.9,16.9-16.9c140,0,254,114,254,254C510,397,396,511,256,511
	L256,511z"/>
<path class="st0" d="M171.3,173.5l109.6,79.2c10.8,7.8,12.1,23.6,2.5,33c-9.4,9.4-25.2,8.2-33-2.5L171.3,173.5z"/>
<path class="st1" d="M510,409.2c0,56.1-45.5,101.6-101.6,101.6s-101.6-45.5-101.6-101.6s45.5-101.6,101.6-101.6S510,353.1,510,409.2
	L510,409.2z"/>
<path class="st2" d="M464,360c-3.9-2.7-9.2-1.8-11.7,2.1L405,430l-33.4-27.5c-3.7-3-8.9-2.5-11.9,1.1c-3,3.7-2.5,8.9,1.1,11.9
	l40.5,33.2c1.6,1.1,3.4,1.8,5.3,1.8c0.5,0,0.7,0,1.1,0c2.3-0.2,4.3-1.6,5.7-3.4l52.6-75.5C468.8,368,467.9,362.7,464,360L464,360z"
	/>
</svg>
