<?xml version="1.0" encoding="utf-8"?>
<!-- Generator: Adobe Illustrator 22.0.0, SVG Export Plug-In . SVG Version: 6.00 Build 0)  -->
<svg version="1.1" id="Layer_1" xmlns="http://www.w3.org/2000/svg" xmlns:xlink="http://www.w3.org/1999/xlink" x="0px" y="0px"
	 viewBox="0 0 512 512" style="enable-background:new 0 0 512 512;" xml:space="preserve">
	 <style type="text/css">
	.st0{clip-path:url(#SVGID_2_);fill:#dbdbdb;}
</style>
<path class="st0" d="M384.7,508.6c2.5,0.1,4.7,0.3,7.2,0.3c26,0,47.6-9.4,64.6-27.9l0.4-0.4c6.1-7.3,13-13.9,20.2-20.8c5-4.7,10.1-9.7,14.8-14.6
	c22.6-23.6,22.5-53.6-0.3-76.3l-62.9-62.9c-10.8-11.3-23.7-17.3-37.4-17.3c-13.5,0-26.6,5.8-37.8,17l-37.3,37.3
	c-3.3-1.9-6.8-3.6-10.1-5.2c-4.1-2.1-8-4.1-11.5-6.2c-34.1-21.7-65-50-94.7-86.3c-14.9-18.8-24.7-34.5-31.8-50.5
	c9.7-8.8,18.8-17.9,27.5-26.9c3.2-3.2,6.4-6.5,9.7-9.8c23.6-23.6,23.6-52.9,0-76.5l-31.2-31.2c-3.6-3.6-7.2-7.3-10.8-10.8
	c-6.9-7-14.1-14.5-21.3-21.1C131.3,7.5,118.4,1.8,104.8,1.8c-13.5,0-26.5,5.7-37.8,16.4L27.7,57.3c-14.4,14.4-22.5,31.8-24.3,52
	c-1.9,25.1,2.6,51.9,14.6,84.2c18.5,49.8,46.1,96.1,87.2,145.5c50,59.6,110.2,106.8,178.8,140C310.7,491.5,345.6,506.1,384.7,508.6
	L384.7,508.6z M126.6,321.7C87.5,274.6,61.3,230.8,44,184c-10.8-28.9-14.6-51.2-13-72.6c1.2-13.8,6.5-25.3,16.4-35.1l38.9-38.9
	c5.9-5.8,12.4-8.7,18.9-8.7c6.4,0,12.4,3,18.5,8.8c6.9,6.5,13.7,13.4,20.7,20.6c3.6,3.6,7.2,7.5,10.9,11l31.2,31.2
	c12.8,12.8,12.8,25.4,0,38.2c-3.3,3.3-6.6,6.6-9.8,9.9c-9.7,9.8-18.8,19.1-28.9,28l-0.6,0.6c-9,9-7.6,17.5-5.4,24
	c0.1,0.3,0.3,0.6,0.3,0.8c8,19.5,19.5,37.8,36.9,59.9c31.5,38.8,64.6,68.9,101.3,92.2c4.6,2.9,9.2,5.2,13.9,7.6
	c4.1,2.1,8,4.1,11.5,6.2c0.4,0.3,0.8,0.4,1.2,0.7c3.6,1.8,6.9,2.6,10.5,2.6c8.7,0,14.2-5.5,16-7.5l39.2-39.2
	c5.9-5.9,12.4-9.1,18.6-9.1c7.7,0,14.1,4.8,18.1,9.1l63.2,63.2c15.5,15.5,8.4,29.4-0.3,38.5c-4.4,4.7-9.1,9.1-13.9,13.9
	c-7.5,7-15,14.5-21.9,22.8c-11.9,12.8-26.1,18.8-44.5,18.8c-1.8,0-3.6-0.1-5.4-0.3c-34.4-2.2-66.1-15.6-90.1-26.9
	C231.2,423.1,174.1,378.4,126.6,321.7L126.6,321.7z"/>
</svg>
