<?xml version="1.0" encoding="utf-8"?>
<!-- Generator: Adobe Illustrator 22.0.0, SVG Export Plug-In . SVG Version: 6.00 Build 0)  -->
<svg version="1.1" id="Layer_1" xmlns="http://www.w3.org/2000/svg" xmlns:xlink="http://www.w3.org/1999/xlink" x="0px" y="0px"
	 viewBox="0 0 512 512" style="enable-background:new 0 0 512 512;" xml:space="preserve">
<style type="text/css">
	.st0{clip-path:url(#SVGID_2_);fill:#dbdbdb;}
</style>
<g>
	<g>
		<g>
			<defs>
				<rect id="SVGID_1_" x="3" y="2.8" width="507" height="508.3"/>
			</defs>
			<clipPath id="SVGID_2_">
				<use xlink:href="#SVGID_1_"  style="overflow:visible;"/>
			</clipPath>
			<path class="st0" d="M505.2,484L382.1,360.8c33-37.9,53.1-87.5,53.1-141.7c0-119.2-96.9-216-216-216C99.9,3.1,3,100,3,219.1
				s96.9,216,216,216c54.2,0,103.6-19.9,141.7-53.1l123.2,123.2c2.9,2.9,6.9,4.5,10.7,4.5s7.7-1.4,10.7-4.5
				C511.1,499.4,511.1,489.7,505.2,484L505.2,484z M33.2,219.1c0-102.5,83.4-185.7,185.7-185.7c102.5,0,185.7,83.4,185.7,185.7
				s-83.3,185.8-185.7,185.8C116.6,404.9,33.2,321.6,33.2,219.1L33.2,219.1z"/>
		</g>
	</g>
</g>
</svg>
