<?xml version="1.0" encoding="utf-8"?>
<!-- Generator: Adobe Illustrator 22.0.0, SVG Export Plug-In . SVG Version: 6.00 Build 0)  -->
<svg version="1.1" id="Layer_1" xmlns="http://www.w3.org/2000/svg" xmlns:xlink="http://www.w3.org/1999/xlink" x="0px" y="0px"
	 viewBox="0 0 512 512" style="enable-background:new 0 0 512 512;" xml:space="preserve">
	 <style type="text/css">
	.st0{clip-path:url(#SVGID_2_);fill:#dbdbdb;}
</style>
<g>
	<path class="st0" d="M361.8,283.6h-68.4c-18.8,0-34,15.2-34,34V370c0,18.8,15.2,34,34,34h68.4c18.8,0,34-15.2,34-34v-52.5
		C395.7,298.7,380.4,283.6,361.8,283.6L361.8,283.6z M371,370c0,5.1-4.2,9.3-9.3,9.3h-68.4c-5.1,0-9.3-4.2-9.3-9.3v-52.5
		c0-5.1,4.2-9.3,9.3-9.3h68.4c5.1,0,9.3,4.2,9.3,9.3V370z"/>
	<path class="st0" d="M507.5,188.1c0-2.2-0.5-4.2-1.7-6L431,50.4c-2.2-3.9-6.3-6.3-10.7-6.3H91.2c-4.4,0-8.5,2.3-10.7,6.3L5.7,182.1
		c-1,1.8-1.7,3.9-1.7,6c0,29.6,17.7,54.8,43.2,66.1v217.2c0,6.8,5.5,12.3,12.3,12.3h392.3c6.8,0,12.3-5.5,12.3-12.3V255.8
		c0-0.5,0-0.9-0.1-1.3C489.6,243.2,507.5,217.7,507.5,188.1L507.5,188.1z M98.4,68.9h314.7l58.5,103H39.9L98.4,68.9z M362.3,196.5
		c-3.9,22.2-23.4,39.1-46.7,39.1c-23.3,0-42.8-16.8-46.7-39.1H362.3z M242.7,196.5c-3.9,22.2-23.4,39.1-46.7,39.1
		c-23.4,0-42.8-16.8-46.8-39.1H242.7z M29.5,196.5H123c-3.9,22.2-23.4,39.1-46.8,39.1C52.9,235.7,33.5,218.7,29.5,196.5L29.5,196.5z
		 M211.4,459h-71V325.7c0-9.6,7.8-17.6,17.6-17.6H194c9.6,0,17.6,7.8,17.6,17.6L211.4,459L211.4,459z M439.5,459H236.1V325.7
		c0-23.3-18.9-42.3-42.3-42.3h-35.9c-23.3,0-42.3,18.9-42.3,42.3v133.4H71.9V260.3c1.4,0.1,2.8,0.1,4.4,0.1
		c24.9,0,46.9-12.6,59.9-31.9c13,19.3,35,31.9,59.9,31.9c24.9,0,46.8-12.6,59.9-31.9c13,19.3,35,31.9,59.8,31.9
		c24.9,0,46.8-12.6,59.8-31.9c13,19.3,35,31.9,59.9,31.9c1.4,0,2.8-0.1,4.2-0.1V459H439.5z M435.4,235.7
		c-23.4,0-42.8-16.8-46.7-39.1h93.5C478,218.7,458.6,235.7,435.4,235.7L435.4,235.7z"/>
</g>
</svg>
