<?xml version="1.0" encoding="utf-8"?>
<!-- Generator: Adobe Illustrator 22.0.0, SVG Export Plug-In . SVG Version: 6.00 Build 0)  -->
<svg version="1.1" id="Layer_1" xmlns="http://www.w3.org/2000/svg" xmlns:xlink="http://www.w3.org/1999/xlink" x="0px" y="0px"
	 viewBox="0 0 512 512" style="enable-background:new 0 0 512 512;" xml:space="preserve">
	 <style type="text/css">
	.st0{clip-path:url(#SVGID_2_);fill:#dbdbdb;}
</style>
<g>
	<path class="st0" d="M256,335.4c65.7,0,119.1-67.7,119.1-150.8S321.7,33.7,256,33.7s-119.1,67.7-119.1,150.8S190.3,335.4,256,335.4z M256,65.5
		c47.3,0,87.3,54.5,87.3,119.1s-40,119.1-87.3,119.1s-87.3-54.5-87.3-119.1S208.7,65.5,256,65.5z"/>
	<path class="st0" d="M34.6,362.1L2.8,457.4C1.2,462.2,2,467.5,5,471.7c3,4.1,7.8,6.6,12.9,6.6h476.3c5.1,0,9.9-2.4,12.9-6.6
		c3-4.1,3.8-9.5,2.2-14.3l-31.8-95.3c-1.7-5-5.7-8.8-10.7-10.2l-111.1-31.8c-3.8-1.1-7.9-0.7-11.5,1.1L256,365.2l-88.2-44.1
		c-3.6-1.8-7.6-2.2-11.5-1.1L45.3,351.9C40.2,353.3,36.2,357.1,34.6,362.1z M159.2,352.3l89.7,44.9c4.5,2.2,9.7,2.2,14.2,0
		l89.7-44.9l97.1,27.8l22.1,66.4H39.9L62,380.1L159.2,352.3z"/>
</g>
</svg>
