<?xml version="1.0" encoding="iso-8859-1"?>
<!-- Generator: Adobe Illustrator 22.0.0, SVG Export Plug-In . SVG Version: 6.00 Build 0)  -->
<svg version="1.1" id="Layer_1" xmlns="http://www.w3.org/2000/svg" xmlns:xlink="http://www.w3.org/1999/xlink" x="0px" y="0px"
	 viewBox="0 0 512 512" style="enable-background:new 0 0 512 512;" xml:space="preserve">
<path d="M505.121,355.618c-1.922-3.071-5.285-4.951-8.899-4.951H15.778c-3.614,0-6.977,1.88-8.878,4.951
	c-1.902,3.071-2.089,6.914-0.459,10.152c14.664,29.349,44.138,47.564,76.934,47.564h345.252c32.775,0,62.249-18.216,76.955-47.544
	C507.169,362.532,507.023,358.709,505.121,355.618z"/>
<path d="M284.639,143.95c1.713-3.865,2.695-8.126,2.695-12.617C287.333,114.058,273.276,100,256,100s-31.333,14.058-31.333,31.333
	c0,4.491,0.982,8.753,2.695,12.617c-94.647,13.014-169.388,89.217-178.976,185.828h415.21
	C454.007,233.208,379.245,156.964,284.639,143.95z M246.245,204.423c-58.426,3.865-108.747,42.007-128.154,97.176
	c-1.504,4.282-5.557,6.977-9.859,6.977c-1.149,0-2.319-0.188-3.467-0.585c-5.431-1.922-8.293-7.875-6.392-13.327
	c22.184-63.085,79.692-106.679,146.494-111.088c5.535-0.355,10.716,3.969,11.113,9.734
	C256.355,199.076,252.01,204.047,246.245,204.423z"/>
<g>
</g>
<g>
</g>
<g>
</g>
<g>
</g>
<g>
</g>
<g>
</g>
<g>
</g>
<g>
</g>
<g>
</g>
<g>
</g>
<g>
</g>
</svg>
