<?xml version="1.0" encoding="iso-8859-1"?>
<!-- Generator: Adobe Illustrator 22.0.0, SVG Export Plug-In . SVG Version: 6.00 Build 0)  -->
<svg version="1.1" id="Layer_1" xmlns="http://www.w3.org/2000/svg" xmlns:xlink="http://www.w3.org/1999/xlink" x="0px" y="0px"
	 viewBox="0 0 512 512" style="enable-background:new 0 0 512 512;" xml:space="preserve">
<path style="fill:#191919;" d="M404.935,343.097h45.726c25.694,0,46.597-20.903,46.597-46.597V148
	c0-25.694-20.903-46.597-46.597-46.597H196.774c-25.694,0-46.597,20.903-46.597,46.597v54.435V337L404.935,343.097z"/>
<rect x="14.742" y="202.435" style="fill:#191919;" width="390.194" height="208.161"/>
<path style="fill:#191919;" d="M251.645,306.516c0,23.081-18.726,41.806-41.806,41.806s-41.806-18.726-41.806-41.806
	c0-23.081,18.726-41.806,41.806-41.806S251.645,283.435,251.645,306.516z"/>
<path style="fill:#FFFFFF;" d="M450.661,94H196.774c-29.613,0-53.565,23.952-53.565,53.565v47.468H14.742
	c-3.919,0-7.403,3.048-7.403,7.403v208.161c0,3.919,3.048,7.403,7.403,7.403h390.194c3.919,0,7.403-3.048,7.403-7.403v-60.532
	h38.758c29.613,0,53.565-23.952,53.565-53.565V148C504.661,118.387,480.274,94,450.661,94z M157.581,165.419h332.274v29.613h-84.919
	H157.581V165.419z M397.532,403.194H22.145V209.839h375.387V403.194z M450.661,335.694h-38.758V209.839h77.952V296.5
	C489.855,318.274,472.435,335.694,450.661,335.694z M489.855,151.048H157.581V148c0-21.774,17.419-39.194,39.194-39.194h253.887
	c21.774,0,39.194,17.419,39.194,39.194V151.048z"/>
<path style="fill:#FFFFFF;" d="M364.435,252.516h-11.323v-8.274c0-3.919-3.048-7.403-7.403-7.403H71.79
	c-3.919,0-7.403,3.048-7.403,7.403v8.274H51.758c-3.919,0-7.403,3.048-7.403,7.403v93.629c0,3.919,3.048,7.403,7.403,7.403h12.629
	v8.274c0,3.919,3.048,7.403,7.403,7.403H345.71c3.919,0,7.403-3.048,7.403-7.403v-8.71h11.323c3.919,0,7.403-3.048,7.403-7.403
	v-93.629C371.403,255.565,368.355,252.516,364.435,252.516z M357.032,346.145H345.71c-3.919,0-7.403,3.048-7.403,7.403v8.274H78.758
	v-8.274c0-3.919-3.048-7.403-7.403-7.403H58.726v-79.258h12.629c3.919,0,7.403-3.048,7.403-7.403v-8.274h259.113v8.274
	c0,3.919,3.048,7.403,7.403,7.403h11.323v79.258H357.032z"/>
<path style="fill:#FFFFFF;" d="M209.839,257.306c-27,0-49.21,22.21-49.21,49.21c0,27,22.21,49.21,49.21,49.21
	s49.21-22.21,49.21-49.21C259.048,279.516,236.839,257.306,209.839,257.306z M209.839,340.919
	c-19.161,0-34.403-15.677-34.403-34.403c0-18.726,15.677-34.403,34.403-34.403c19.161,0,34.403,15.677,34.403,34.403
	C244.242,325.242,229,340.919,209.839,340.919z"/>
<path style="fill:#FFFFFF;" d="M321.758,299.113h-44.855c-3.919,0-7.403,3.048-7.403,7.403c0,3.919,3.048,7.403,7.403,7.403h44.855
	c3.919,0,7.403-3.048,7.403-7.403C329.161,302.597,325.677,299.113,321.758,299.113z"/>
<g>
</g>
<g>
</g>
<g>
</g>
<g>
</g>
<g>
</g>
<g>
</g>
<g>
</g>
<g>
</g>
<g>
</g>
<g>
</g>
<g>
</g>
</svg>
