<?xml version="1.0" encoding="iso-8859-1"?>
<!-- Generator: Adobe Illustrator 22.0.0, SVG Export Plug-In . SVG Version: 6.00 Build 0)  -->
<svg version="1.1" id="Layer_1" xmlns="http://www.w3.org/2000/svg" xmlns:xlink="http://www.w3.org/1999/xlink" x="0px" y="0px"
	 viewBox="0 0 512 512" style="enable-background:new 0 0 512 512;" xml:space="preserve">
<path style="fill:#45B590;" d="M255.801,7C118.62,7,7,118.62,7,255.801s111.62,248.801,248.801,248.801
	c137.182,0,248.801-111.621,248.801-248.801S392.982,7,255.801,7z M375.411,274.903H274.903v105.268
	c0,10.562-8.54,19.161-19.102,19.161c-10.561,0-19.161-8.6-19.161-19.161V274.903H136.191c-10.562,0-19.161-8.541-19.161-19.102
	s8.599-19.161,19.161-19.161H236.64v-95.688c0-10.562,8.6-19.102,19.161-19.102c10.562,0,19.102,8.54,19.102,19.102v95.688h100.509
	c10.561,0,19.102,8.6,19.102,19.161S385.972,274.903,375.411,274.903z"/>
<g>
</g>
<g>
</g>
<g>
</g>
<g>
</g>
<g>
</g>
<g>
</g>
<g>
</g>
<g>
</g>
<g>
</g>
<g>
</g>
<g>
</g>
</svg>
