<?xml version="1.0" encoding="utf-8"?>
<!-- Generator: Adobe Illustrator 22.0.0, SVG Export Plug-In . SVG Version: 6.00 Build 0)  -->
<svg version="1.1" id="Layer_1" xmlns="http://www.w3.org/2000/svg" xmlns:xlink="http://www.w3.org/1999/xlink" x="0px" y="0px"
	 viewBox="0 0 512 512" style="enable-background:new 0 0 512 512;" xml:space="preserve">
	 <style type="text/css">
		.st0{clip-path:url(#SVGID_2_);fill:#191919;}
	</style>
<g>
	<path class="st0" d="M487.5,466H24.8c-9.7,0-17.3,8-17.3,17.3c0,9.3,8.1,17.3,17.3,17.3h463.2c9.7,0,17.3-8,17.3-17.3
		C505.2,474.1,497.2,466,487.5,466L487.5,466z"/>
	<path class="st0" d="M7.4,312.5L7,395c0,4.6,1.7,9.3,5.1,12.7c3.4,3.4,7.6,5.1,12.3,5.1l82.1-0.4c4.6,0,8.9-1.7,12.3-5.1L402,123.8
		c6.8-6.8,6.8-17.8,0-24.9l-81.2-82c-6.8-6.8-17.8-6.8-24.9,0L239.2,74L12.5,300.2C9.5,303.6,7.4,307.8,7.4,312.5L7.4,312.5z
		 M308.6,54.1l57.1,57.1l-32.1,32.1l-57.1-57.1L308.6,54.1z M42.5,320.1l208.9-208.9l57.1,57.1L99.6,376.8l-57.5,0.4L42.5,320.1z"/>
</g>
</svg>
